REM DIRINDEX 1
REM DIRNAME cjc118
TITLE ""
FILE "33_dokkai_2_q35_39.mp3" MP3
  TRACK 01 AUDIO
    TITLE "0:"
    INDEX 01 00:00:00
  TRACK 02 AUDIO
    TITLE "1:cjc118_1680"
    INDEX 01 00:00:13
  TRACK 03 AUDIO
    TITLE "1:cjc118_1681"
    INDEX 01 00:06:33
  TRACK 04 AUDIO
    TITLE "1:cjc118_1682"
    INDEX 01 00:10:61
  TRACK 05 AUDIO
    TITLE "1:cjc118_1683"
    INDEX 01 00:13:22
  TRACK 06 AUDIO
    TITLE "1:cjc118_1684"
    INDEX 01 00:18:54
  TRACK 07 AUDIO
    TITLE "1:cjc118_1685"
    INDEX 01 00:23:30
  TRACK 08 AUDIO
    TITLE "1:cjc118_1686"
    INDEX 01 00:31:39
  TRACK 09 AUDIO
    TITLE "1:cjc118_1687"
    INDEX 01 00:36:60
  TRACK 10 AUDIO
    TITLE "1:cjc118_1688"
    INDEX 01 00:39:45
  TRACK 11 AUDIO
    TITLE "1:cjc118_1689"
    INDEX 01 00:43:05
  TRACK 12 AUDIO
    TITLE "1:cjc118_1690"
    INDEX 01 00:48:48
  TRACK 13 AUDIO
    TITLE "1:cjc118_1691"
    INDEX 01 00:56:08
  TRACK 14 AUDIO
    TITLE "1:cjc118_1692"
    INDEX 01 00:58:52
  TRACK 15 AUDIO
    TITLE "1:cjc118_1693"
    INDEX 01 01:01:62
  TRACK 16 AUDIO
    TITLE "1:cjc118_1694"
    INDEX 01 01:05:09
  TRACK 17 AUDIO
    TITLE "1:cjc118_1695"
    INDEX 01 01:07:51
  TRACK 18 AUDIO
    TITLE "1:cjc118_1696"
    INDEX 01 01:10:02
  TRACK 19 AUDIO
    TITLE "1:cjc118_1697"
    INDEX 01 01:13:18
  TRACK 20 AUDIO
    TITLE "1:cjc118_1698"
    INDEX 01 01:24:00
  TRACK 21 AUDIO
    TITLE "1:cjc118_1699"
    INDEX 01 01:26:30
  TRACK 22 AUDIO
    TITLE "1:cjc118_1700"
    INDEX 01 01:41:09
  TRACK 23 AUDIO
    TITLE "1:cjc118_1701"
    INDEX 01 01:42:45
  TRACK 24 AUDIO
    TITLE "1:cjc118_1702"
    INDEX 01 01:44:46
  TRACK 25 AUDIO
    TITLE "1:cjc118_1703"
    INDEX 01 01:59:57
  TRACK 26 AUDIO
    TITLE "1:cjc118_1704"
    INDEX 01 02:04:04
  TRACK 27 AUDIO
    TITLE "1:cjc118_1705"
    INDEX 01 02:19:21
  TRACK 28 AUDIO
    TITLE "1:cjc118_1706"
    INDEX 01 02:29:74
  TRACK 29 AUDIO
    TITLE "1:cjc118_1707"
    INDEX 01 02:38:32
  TRACK 30 AUDIO
    TITLE "1:cjc118_1708"
    INDEX 01 02:46:71
  TRACK 31 AUDIO
    TITLE "1:cjc118_1709"
    INDEX 01 02:51:62
  TRACK 32 AUDIO
    TITLE "1:cjc118_1710"
    INDEX 01 03:03:28
  TRACK 33 AUDIO
    TITLE "1:cjc118_1711"
    INDEX 01 03:06:48
  TRACK 34 AUDIO
    TITLE "1:cjc118_1712"
    INDEX 01 03:11:22
  TRACK 35 AUDIO
    TITLE "1:cjc118_1713"
    INDEX 01 03:18:33
  TRACK 36 AUDIO
    TITLE "1:cjc118_1714"
    INDEX 01 03:21:12
  TRACK 37 AUDIO
    TITLE "1:cjc118_1715"
    INDEX 01 03:22:53
  TRACK 38 AUDIO
    TITLE "1:cjc118_1716"
    INDEX 01 03:24:24
  TRACK 39 AUDIO
    TITLE "1:cjc118_1717"
    INDEX 01 03:27:01
  TRACK 40 AUDIO
    TITLE "1:cjc118_1718"
    INDEX 01 03:28:06
  TRACK 41 AUDIO
    TITLE "1:cjc118_1719"
    INDEX 01 03:30:35
  TRACK 42 AUDIO
    TITLE "1:cjc118_1720"
    INDEX 01 03:31:54
  TRACK 43 AUDIO
    TITLE "1:cjc118_1721"
    INDEX 01 03:34:07
  TRACK 44 AUDIO
    TITLE "1:cjc118_1722"
    INDEX 01 03:35:20
  TRACK 45 AUDIO
    TITLE "1:cjc118_1723"
    INDEX 01 03:37:56
  TRACK 46 AUDIO
    TITLE "1:cjc118_1724"
    INDEX 01 03:39:00
  TRACK 47 AUDIO
    TITLE "1:cjc118_1725"
    INDEX 01 03:40:62
  TRACK 48 AUDIO
    TITLE "1:cjc118_1726"
    INDEX 01 03:42:42
  TRACK 49 AUDIO
    TITLE "1:cjc118_1727"
    INDEX 01 03:44:21
  TRACK 50 AUDIO
    TITLE "1:cjc118_1728"
    INDEX 01 03:47:72
  TRACK 51 AUDIO
    TITLE "1:cjc118_1729"
    INDEX 01 03:49:09
  TRACK 52 AUDIO
    TITLE "1:cjc118_1730"
    INDEX 01 03:51:56
  TRACK 53 AUDIO
    TITLE "1:cjc118_1731"
    INDEX 01 03:52:72
  TRACK 54 AUDIO
    TITLE "1:cjc118_1732"
    INDEX 01 03:54:39
  TRACK 55 AUDIO
    TITLE "1:cjc118_1733"
    INDEX 01 03:55:64
  TRACK 56 AUDIO
    TITLE "1:cjc118_1734"
    INDEX 01 03:57:16
  TRACK 57 AUDIO
    TITLE "1:cjc118_1735"
    INDEX 01 03:58:41
  TRACK 58 AUDIO
    TITLE "1:cjc118_1736"
    INDEX 01 03:59:46
  TRACK 59 AUDIO
    TITLE "1:cjc118_1737"
    INDEX 01 04:01:18
  TRACK 60 AUDIO
    TITLE "1:cjc118_1738"
    INDEX 01 04:02:66
  TRACK 61 AUDIO
    TITLE "1:cjc118_1739"
    INDEX 01 04:07:48
  TRACK 62 AUDIO
    TITLE "1:cjc118_1740"
    INDEX 01 04:08:57
  TRACK 63 AUDIO
    TITLE "1:cjc118_1741"
    INDEX 01 04:10:09
  TRACK 64 AUDIO
    TITLE "1:cjc118_1742"
    INDEX 01 04:11:24
  TRACK 65 AUDIO
    TITLE "1:cjc118_1743"
    INDEX 01 04:12:51
  TRACK 66 AUDIO
    TITLE "1:cjc118_1744"
    INDEX 01 04:13:74
  TRACK 67 AUDIO
    TITLE "1:cjc118_1745"
    INDEX 01 04:15:22
  TRACK 68 AUDIO
    TITLE "1:cjc118_1746"
    INDEX 01 04:16:41
  TRACK 69 AUDIO
    TITLE "1:cjc118_1747"
    INDEX 01 04:17:30
  TRACK 70 AUDIO
    TITLE "1:cjc118_1748"
    INDEX 01 04:19:08
  TRACK 71 AUDIO
    TITLE "1:cjc118_1749"
    INDEX 01 04:20:44
  TRACK 72 AUDIO
    TITLE "1:cjc118_1750"
    INDEX 01 04:27:72
  TRACK 73 AUDIO
    TITLE "1:cjc118_1751"
    INDEX 01 04:29:00
  TRACK 74 AUDIO
    TITLE "1:cjc118_1752"
    INDEX 01 04:30:43
  TRACK 75 AUDIO
    TITLE "1:cjc118_1753"
    INDEX 01 04:31:58
  TRACK 76 AUDIO
    TITLE "1:cjc118_1754"
    INDEX 01 04:33:25
  TRACK 77 AUDIO
    TITLE "1:cjc118_1755"
    INDEX 01 04:34:46
  TRACK 78 AUDIO
    TITLE "1:cjc118_1756"
    INDEX 01 04:36:02
  TRACK 79 AUDIO
    TITLE "1:cjc118_1757"
    INDEX 01 04:37:19
  TRACK 80 AUDIO
    TITLE "1:cjc118_1758"
    INDEX 01 04:38:36
  TRACK 81 AUDIO
    TITLE "1:cjc118_1759"
    INDEX 01 04:40:10
  TRACK 82 AUDIO
    TITLE "1:cjc118_1760"
    INDEX 01 04:41:56
  TRACK 83 AUDIO
    TITLE "1:cjc118_1761"
    INDEX 01 04:46:44
  TRACK 84 AUDIO
    TITLE "1:cjc118_1762"
    INDEX 01 04:47:57
  TRACK 85 AUDIO
    TITLE "1:cjc118_1763"
    INDEX 01 04:52:11
  TRACK 86 AUDIO
    TITLE "1:cjc118_1764"
    INDEX 01 04:53:24
  TRACK 87 AUDIO
    TITLE "1:cjc118_1765"
    INDEX 01 04:58:06
  TRACK 88 AUDIO
    TITLE "1:cjc118_1766"
    INDEX 01 04:59:23
  TRACK 89 AUDIO
    TITLE "1:cjc118_1767"
    INDEX 01 05:03:32
  TRACK 90 AUDIO
    TITLE "1:cjc118_1768"
    INDEX 01 05:04:49
  TRACK 91 AUDIO
    TITLE "0:"
    INDEX 01 05:09:49
